<svg width="60" height="60" viewBox="0 0 60 60" fill="none" xmlns="http://www.w3.org/2000/svg">
<path d="M50 10.0001L40 20M40 10L50 19.9999" stroke="#0E7DAC" stroke-width="3" stroke-linecap="round"/>
<path d="M9.37964 17.3143C9.32414 16.2802 8.44089 15.4869 7.40684 15.5424C6.37279 15.5979 5.57954 16.4812 5.63504 17.5152L9.37964 17.3143ZM11.7943 7.73025C11.0811 8.48107 11.1116 9.66785 11.8625 10.381C12.6133 11.0942 13.8001 11.0636 14.5132 10.3128L11.7943 7.73025ZM26.6603 49.5307C27.537 50.0817 28.6945 49.8177 29.2455 48.9409C29.7965 48.0642 29.5323 46.9067 28.6555 46.3557L26.6603 49.5307ZM37.7825 50.1459C36.769 49.9337 35.7753 50.5834 35.563 51.5969C35.3508 52.6104 36.0003 53.6042 37.014 53.8164L37.7825 50.1459ZM39.1115 38.8592L40.25 37.6604L37.531 35.0779L36.3925 36.2767L39.1115 38.8592ZM43.9968 37.1557L48.773 39.9049L50.6438 36.6549L45.8675 33.9057L43.9968 37.1557ZM49.6948 45.6047L46.1435 49.3437L48.8625 51.9262L52.4138 48.1874L49.6948 45.6047ZM20.898 39.8967C11.2077 29.6944 9.58224 21.0888 9.37964 17.3143L5.63504 17.5152C5.88316 22.1383 7.84611 31.6007 18.179 42.4792L20.898 39.8967ZM24.3364 23.3039L25.0535 22.549L22.3344 19.9664L21.6174 20.7213L24.3364 23.3039ZM25.6168 13.1502L22.4642 8.6915L19.4023 10.8564L22.5547 15.3151L25.6168 13.1502ZM22.9769 22.0126C21.6174 20.7213 21.6157 20.7231 21.6139 20.725C21.6133 20.7256 21.6116 20.7275 21.6104 20.7287C21.608 20.7313 21.6056 20.7338 21.6031 20.7365C21.5982 20.7418 21.5931 20.7473 21.5879 20.7531C21.5774 20.7646 21.5663 20.7771 21.5546 20.7905C21.5312 20.8174 21.5055 20.8482 21.478 20.8829C21.4231 20.9524 21.3609 21.0377 21.2957 21.1396C21.1649 21.344 21.023 21.6132 20.9029 21.9507C20.6587 22.6372 20.5256 23.5462 20.6919 24.6813C21.0187 26.9117 22.4801 29.9109 26.2985 33.9309L29.0175 31.3484C25.4483 27.5907 24.5691 25.2764 24.4023 24.1377C24.3218 23.5883 24.4036 23.2988 24.4359 23.2079C24.4541 23.1568 24.466 23.1426 24.4544 23.1608C24.4487 23.1696 24.4375 23.1862 24.4186 23.2101C24.4091 23.222 24.3977 23.2358 24.3841 23.2515C24.3773 23.2593 24.37 23.2676 24.362 23.2763C24.358 23.2807 24.3539 23.2852 24.3496 23.2898C24.3475 23.2921 24.3453 23.2944 24.3431 23.2967C24.342 23.2979 24.3403 23.2997 24.3398 23.3003C24.3381 23.3021 24.3364 23.3039 22.9769 22.0126ZM26.2985 33.9309C30.1055 37.9392 32.981 39.5149 35.1748 39.8712C36.3003 40.0539 37.2115 39.9079 37.9015 39.6359C38.2388 39.5029 38.5058 39.3467 38.706 39.2047C38.8058 39.1337 38.889 39.0664 38.9563 39.0077C38.9898 38.9782 39.0195 38.9507 39.0453 38.9257C39.0583 38.9134 39.07 38.9014 39.081 38.8904C39.0865 38.8849 39.092 38.8794 39.097 38.8742C39.0995 38.8717 39.102 38.8692 39.1043 38.8667C39.1055 38.8654 39.1073 38.8634 39.108 38.8629C39.1098 38.8609 39.1115 38.8592 37.752 37.5679C36.3925 36.2767 36.3943 36.2749 36.3958 36.2732C36.3965 36.2724 36.398 36.2707 36.3993 36.2694C36.4015 36.2672 36.4038 36.2649 36.4058 36.2627C36.4103 36.2582 36.4145 36.2537 36.4188 36.2494C36.427 36.2412 36.435 36.2332 36.4425 36.2259C36.4578 36.2114 36.4713 36.1989 36.4833 36.1884C36.5073 36.1674 36.525 36.1539 36.5365 36.1459C36.5598 36.1292 36.5575 36.1349 36.5255 36.1474C36.4773 36.1664 36.2503 36.2467 35.7758 36.1697C34.7695 36.0062 32.5978 35.1179 29.0175 31.3484L26.2985 33.9309ZM22.4642 8.6915C19.9303 5.10755 14.8597 4.5029 11.7943 7.73025L14.5132 10.3128C15.8203 8.9367 18.1214 9.0448 19.4023 10.8564L22.4642 8.6915ZM46.1435 49.3437C45.4458 50.0782 44.716 50.4717 44.0065 50.5417L44.375 54.2737C46.2425 54.0892 47.754 53.0932 48.8625 51.9262L46.1435 49.3437ZM25.0535 22.549C27.4723 20.0023 27.6435 16.0169 25.6168 13.1502L22.5547 15.3151C23.6101 16.8078 23.4483 18.7937 22.3344 19.9664L25.0535 22.549ZM48.773 39.9049C50.8253 41.0862 51.2268 43.9919 49.6948 45.6047L52.4138 48.1874C55.6763 44.7527 54.726 39.0047 50.6438 36.6549L48.773 39.9049ZM40.25 37.6604C41.2135 36.6459 42.715 36.4179 43.9968 37.1557L45.8675 33.9057C43.1213 32.3249 39.7155 32.7782 37.531 35.0779L40.25 37.6604ZM28.6555 46.3557C26.1963 44.8102 23.5787 42.7189 20.898 39.8967L18.179 42.4792C21.0641 45.5167 23.9224 47.8102 26.6603 49.5307L28.6555 46.3557ZM44.0065 50.5417C42.6403 50.6767 40.478 50.7104 37.7825 50.1459L37.014 53.8164C40.1353 54.4699 42.6855 54.4404 44.375 54.2737L44.0065 50.5417Z" fill="#0E7DAC"/>
</svg>
