<svg width="63" height="63" viewBox="0 0 63 63" fill="none" xmlns="http://www.w3.org/2000/svg">
<path d="M5.47092 7.2218C5.83157 6.19606 6.95546 5.65686 7.98123 6.0175L8.77241 6.29565C10.3908 6.86457 11.7653 7.34778 12.847 7.87855C14.0037 8.44608 14.9955 9.14522 15.7415 10.2369C16.4817 11.32 16.7873 12.5084 16.9284 13.8114C16.9915 14.3947 17.0248 15.0403 17.0424 15.7499H44.9676C49.3907 15.7499 53.3723 15.7499 54.5375 17.2647C55.703 18.7796 55.2473 21.0621 54.3362 25.6271L53.0242 31.9921C52.1971 36.0055 51.7834 38.012 50.3352 39.1922C48.887 40.3724 46.8381 40.3724 42.7405 40.3724H28.8204C21.4995 40.3724 17.8391 40.3724 15.5648 37.9737C13.2904 35.5747 13.1244 33.0266 13.1244 25.3049V18.4755C13.1244 16.5331 13.1218 15.2332 13.0137 14.2351C12.9105 13.2814 12.7275 12.8051 12.4906 12.4584C12.2594 12.1201 11.9085 11.804 11.1126 11.4135C10.2651 10.9976 9.1134 10.5893 7.36092 9.97317L6.67524 9.73209C5.64947 9.37147 5.1103 8.24757 5.47092 7.2218Z" fill="white"/>
<path d="M19.6875 47.25C21.8621 47.25 23.625 49.0129 23.625 51.1875C23.625 53.3621 21.8621 55.125 19.6875 55.125C17.5129 55.125 15.75 53.3621 15.75 51.1875C15.75 49.0129 17.5129 47.25 19.6875 47.25Z" fill="white"/>
<path d="M43.3125 47.2502C45.4871 47.2502 47.25 49.0129 47.25 51.1877C47.25 53.3623 45.4871 55.1252 43.3125 55.1252C41.1379 55.1252 39.375 53.3623 39.375 51.1877C39.375 49.0129 41.1379 47.2502 43.3125 47.2502Z" fill="white"/>
</svg>
