<svg width="36" height="36" viewBox="0 0 36 36" fill="none" xmlns="http://www.w3.org/2000/svg">
<path d="M12.2091 13.2579C12.2091 13.8426 12.6831 14.3166 13.2678 14.3166C13.8525 14.3166 14.3265 13.8426 14.3265 13.2579H12.2091ZM13.2678 12.929H14.3265L14.3265 12.9231L13.2678 12.929ZM17.8286 8.31747V7.25879L17.8227 7.25882L17.8286 8.31747ZM23.5283 8.31747L23.5343 7.2588H23.5283V8.31747ZM28.0891 12.929L27.0304 12.9231V12.929H28.0891ZM28.0891 18.5273H27.0304L27.0306 18.5332L28.0891 18.5273ZM23.5283 23.1388V24.1975H23.5343L23.5283 23.1388ZM23.1486 22.0802C22.564 22.0802 22.09 22.5542 22.09 23.1388C22.09 23.7235 22.564 24.1975 23.1486 24.1975V22.0802ZM13.2678 14.3166C13.8525 14.3166 14.3265 13.8426 14.3265 13.2579C14.3265 12.6732 13.8525 12.1993 13.2678 12.1993V14.3166ZM12.8881 13.2579V12.1992L12.8823 12.1993L12.8881 13.2579ZM8.32736 17.8695H9.38604L9.38601 17.8635L8.32736 17.8695ZM8.32736 23.4691L9.38602 23.4746V23.4691H8.32736ZM12.8881 28.0793L12.8823 29.1379H12.8881V28.0793ZM18.5879 28.0793V29.1379H18.5938L18.5879 28.0793ZM23.1486 23.4677H22.09L22.0901 23.4736L23.1486 23.4677ZM24.2073 23.1388C24.2073 22.5542 23.7334 22.0802 23.1486 22.0802C22.564 22.0802 22.09 22.5542 22.09 23.1388H24.2073ZM13.2678 12.1993C12.6831 12.1993 12.2091 12.6732 12.2091 13.2579C12.2091 13.8426 12.6831 14.3166 13.2678 14.3166V12.1993ZM18.588 13.2579L18.5938 12.1993H18.588V13.2579ZM23.1488 17.8695L22.0901 17.8635V17.8695H23.1488ZM22.09 23.1388C22.09 23.7235 22.564 24.1975 23.1486 24.1975C23.7333 24.1975 24.2073 23.7235 24.2073 23.1388H22.09ZM14.3265 13.2579L14.3265 12.929H12.2091V13.2579H14.3265ZM14.3265 12.9231C14.3213 11.9876 14.6879 11.0883 15.3458 10.4231L13.8403 8.93424C12.7876 9.99872 12.2008 11.4378 12.2092 12.9349L14.3265 12.9231ZM15.3458 10.4231C16.0036 9.75791 16.8988 9.38129 17.8344 9.37612L17.8227 7.25882C16.3256 7.26709 14.8931 7.86975 13.8403 8.93424L15.3458 10.4231ZM17.8286 9.37614H23.5283V7.2588L17.8286 7.25879V9.37614ZM23.5226 9.37612C24.4581 9.38129 25.3533 9.75791 26.0111 10.4231L27.5166 8.93424C26.4638 7.86975 25.0314 7.26707 23.5343 7.2588L23.5226 9.37612ZM26.0111 10.4231C26.6691 11.0883 27.0355 11.9876 27.0304 12.9231L29.1478 12.9349C29.1561 11.4378 28.5693 9.99872 27.5166 8.93424L26.0111 10.4231ZM27.0304 12.929V18.5273H29.1478V12.929H27.0304ZM27.0306 18.5332C27.0356 19.4686 26.6691 20.3679 26.0111 21.0332L27.5166 22.5221C28.5693 21.4575 29.1561 20.0184 29.1478 18.5213L27.0306 18.5332ZM26.0111 21.0332C25.3533 21.6983 24.4581 22.0749 23.5226 22.0802L23.5343 24.1975C25.0314 24.1892 26.4638 23.5866 27.5166 22.5221L26.0111 21.0332ZM23.5283 22.0802H23.1486V24.1975H23.5283V22.0802ZM13.2678 12.1993L12.8881 12.1992V14.3166H13.2678V12.1993ZM12.8823 12.1993C11.3851 12.2075 9.95264 12.8102 8.8999 13.8747L10.4054 15.3636C11.0632 14.6984 11.9584 14.3217 12.8939 14.3166L12.8823 12.1993ZM8.8999 13.8747C7.84715 14.9392 7.26039 16.3783 7.2687 17.8754L9.38601 17.8635C9.38082 16.9281 9.74748 16.0288 10.4054 15.3636L8.8999 13.8747ZM7.26869 17.8695V23.4691H9.38602L9.38604 17.8695H7.26869ZM7.2687 23.4636C7.25234 26.5805 9.76537 29.1207 12.8823 29.1379L12.894 27.0206C10.9462 27.0099 9.3758 25.4224 9.38602 23.4746L7.2687 23.4636ZM12.8881 29.1379H18.5879V27.0206H12.8881V29.1379ZM18.5938 29.1379C20.0909 29.1296 21.5234 28.527 22.5761 27.4626L21.0707 25.9736C20.4129 26.6388 19.5177 27.0154 18.5821 27.0206L18.5938 29.1379ZM22.5761 27.4626C23.6288 26.398 24.2156 24.9589 24.2073 23.4618L22.0901 23.4736C22.0952 24.4091 21.7286 25.3084 21.0707 25.9736L22.5761 27.4626ZM24.2073 23.4677V23.1388H22.09V23.4677H24.2073ZM13.2678 14.3166H18.588V12.1993H13.2678V14.3166ZM18.5821 14.3166C19.5177 14.3217 20.4129 14.6984 21.0707 15.3636L22.5761 13.8747C21.5234 12.8102 20.0909 12.2075 18.5938 12.1993L18.5821 14.3166ZM21.0707 15.3636C21.7286 16.0288 22.0952 16.9281 22.0901 17.8635L24.2073 17.8754C24.2156 16.3783 23.6288 14.9392 22.5761 13.8747L21.0707 15.3636ZM22.0901 17.8695L22.09 23.1388H24.2073L24.2074 17.8695H22.0901Z" fill="#4D4D4D"/>
</svg>
