<svg width="17" height="17" viewBox="0 0 17 17" fill="none" xmlns="http://www.w3.org/2000/svg">
<path d="M14.0252 13.3631C14.491 12.6191 14.8126 11.7759 14.946 10.8718L14.5278 11.039C13.1086 11.445 11.6693 11.6209 10.2988 11.6209C7.3465 11.6209 4.70979 10.8046 3.26171 9.71296C2.61061 9.22195 2.26666 8.70459 2.26666 8.2164V8.01636C2.08278 8.61786 1.98334 9.25565 1.98334 9.91639C1.98334 10.0017 1.98646 10.0861 1.98985 10.1705L2.60523 10.8922C4.01821 13.0013 7.31957 13.8357 13.3052 13.6H13.4755L16.521 16.9214C16.5757 16.9736 16.6463 16.9996 16.7165 16.9996C16.7914 16.9996 16.8659 16.9702 16.9217 16.9118C17.0296 16.7987 17.0254 16.6191 16.912 16.5114L14.0252 13.3631Z" fill="black"/>
<path d="M2.83325 6.70467V8.21653C2.83325 8.51121 3.11375 8.89171 3.60279 9.26033C6.45964 11.4142 11.6052 11.2816 14.358 10.4979L15.0083 10.2378C15.0137 10.1313 15.0165 10.0242 15.0165 9.91652C15.0165 9.23822 14.9119 8.58402 14.719 7.96861L14.2433 8.20604C12.7901 8.61517 11.4071 8.79028 10.15 8.79028C7.77029 8.79028 5.83854 8.16411 4.71881 7.31611C4.051 6.81036 3.68325 6.22443 3.68325 5.66655V5.53198C3.35829 5.88868 3.07354 6.28253 2.83325 6.70467Z" fill="black"/>
<path d="M5.71417 7.276C6.2151 7.54232 6.8186 7.76787 7.50653 7.93249C9.3714 7.92485 10.6971 6.243 11.7483 4.59683L11.8817 4.34808C11.2459 3.96047 10.539 3.67914 9.78538 3.52783L9.5998 3.87464C8.63901 5.38022 7.44504 6.89889 5.71417 7.276Z" fill="black"/>
<path d="M9.00824 8.17319C10.4852 8.30862 12.2079 8.18707 14.064 7.66774L14.5253 7.43712C14.1479 6.52337 13.5662 5.71644 12.8408 5.0665L13.9603 3.65919C14.2666 3.8527 14.6281 3.96662 15.0165 3.96662C16.1102 3.96662 16.9998 3.07695 16.9998 1.98331C16.9998 0.889676 16.1102 -6.10352e-05 15.0166 -6.10352e-05C13.9229 -6.10352e-05 13.0333 0.88961 13.0333 1.98325C13.0333 2.48561 13.2225 2.94374 13.5316 3.29366L12.4068 4.70777C12.3887 4.69416 12.3717 4.67915 12.3536 4.66557L12.2366 4.88345C11.3828 6.22189 10.36 7.57056 9.00824 8.17319ZM15.2999 1.13329C15.4563 1.13329 15.5832 1.26022 15.5832 1.41661C15.5832 1.57299 15.4563 1.69993 15.2999 1.69993C14.9874 1.69993 14.7332 1.95406 14.7332 2.2666C14.7332 2.42298 14.6063 2.54992 14.4499 2.54992C14.2935 2.54992 14.1666 2.42298 14.1666 2.2666C14.1666 1.64156 14.6748 1.13329 15.2999 1.13329Z" fill="black"/>
<path d="M11.4598 14.2051C6.43068 14.2051 3.52175 13.2633 2.14359 11.2213L2.10704 11.1785C2.28185 12.0656 2.64084 12.8862 3.13666 13.6053C3.1358 13.6061 3.13467 13.6064 3.13354 13.6073L0.0877726 16.5114C-0.0255488 16.6194 -0.0297988 16.7987 0.0784094 16.9121C0.133958 16.9704 0.208731 16.9999 0.283271 16.9999C0.353528 16.9999 0.424084 16.9738 0.47877 16.9214L3.47981 14.06C4.67575 15.507 6.48029 16.4332 8.49989 16.4332C10.4702 16.4332 12.2379 15.5529 13.4338 14.1666H13.3165C12.6682 14.1921 12.0491 14.2051 11.4598 14.2051Z" fill="black"/>
<path d="M1.98343 3.96665C2.35517 3.96665 2.70197 3.86209 2.99947 3.68333L4.27728 4.96114C4.26848 4.96878 4.25885 4.97532 4.25009 4.98265V5.6666C4.25009 6.02134 4.50904 6.41971 4.97683 6.79623C6.4615 6.75655 7.70388 5.79211 9.11119 3.58837L9.19223 3.43706C8.96473 3.41299 8.7338 3.39994 8.50006 3.39994C7.09418 3.39994 5.79283 3.84957 4.72751 4.61005L3.4412 3.32374C3.76619 2.97013 3.96677 2.50038 3.96677 1.98331C3.96677 0.889638 3.0771 0 1.98346 0C0.889826 0 0.00012207 0.889671 0.00012207 1.98334C0.00012207 3.07701 0.889793 3.96665 1.98343 3.96665ZM2.26678 1.13335C2.42317 1.13335 2.5501 1.26028 2.5501 1.41667C2.5501 1.57305 2.42317 1.69999 2.26678 1.69999C1.95428 1.69999 1.70011 1.95412 1.70011 2.26666C1.70011 2.42305 1.57317 2.54998 1.41679 2.54998C1.2604 2.54998 1.13347 2.42305 1.13347 2.26666C1.13344 1.64162 1.64174 1.13335 2.26678 1.13335Z" fill="black"/>
</svg>
