<svg width="18" height="17" viewBox="0 0 18 17" fill="none" xmlns="http://www.w3.org/2000/svg">
<g clip-path="url(#clip0_496_3522)">
<g clip-path="url(#clip1_496_3522)">
<path d="M10.1489 4.56287C9.21731 4.56287 8.45941 5.32076 8.45941 6.25237C8.45941 7.18399 9.21731 7.94188 10.1489 7.94188C11.0805 7.94188 11.8384 7.18399 11.8384 6.25237C11.8384 5.32076 11.0805 4.56287 10.1489 4.56287Z" fill="black"/>
<path d="M15.0104 2.48957C13.405 0.884133 11.2705 0 9 0C6.72957 0 4.59504 0.884133 2.98957 2.48957C1.38413 4.09504 0.5 6.22957 0.5 8.5C0.5 10.7704 1.38413 12.905 2.98957 14.5104C4.59504 16.1159 6.72957 17 9 17C11.2705 17 13.405 16.1159 15.0104 14.5104C16.6159 12.905 17.5 10.7704 17.5 8.5C17.5 6.22957 16.6159 4.09504 15.0104 2.48957ZM13.6641 11.2904C13.1398 12.1636 12.3774 12.8783 11.4671 13.3438C11.6581 13.6508 11.7266 14.0324 11.6278 14.4076L11.6275 14.4088C11.4293 15.1614 10.6407 15.5921 9.89921 15.3556C8.37469 14.8695 7.02216 14.282 5.79397 13.5743C4.71265 12.9513 3.69733 12.2155 2.71734 11.3431C2.1307 10.8207 2.10743 9.91123 2.6674 9.36039C2.92184 9.11011 3.25134 8.97985 3.58404 8.97125C3.57063 8.81589 3.56339 8.65878 3.56339 8.49997C3.56339 5.81652 5.51779 3.58122 8.07785 3.14195C8.67112 2.74563 9.3835 2.51417 10.1489 2.51417C12.1009 2.51417 13.7083 4.01818 13.8732 5.92822C14.7514 6.50463 15.2849 7.4807 15.2849 8.54712C15.2849 9.72672 14.6296 10.7558 13.6641 11.2904Z" fill="black"/>
<path d="M9.32295 9.89864C7.64161 9.51863 6.41074 8.00514 6.41074 6.25241C6.41074 5.75436 6.50889 5.27886 6.68646 4.84393C5.47664 5.61222 4.67206 6.96389 4.67206 8.50003C4.67206 8.86563 4.71785 9.2207 4.80358 9.56011C5.554 10.2013 6.32086 10.743 7.15001 11.2208C8.0954 11.7655 9.13638 12.2305 10.3015 12.6279C10.9183 12.433 11.4756 12.1033 11.9392 11.6737C10.8105 11.5972 9.80848 10.9138 9.32295 9.89864Z" fill="black"/>
</g>
</g>
<defs>
<clipPath id="clip0_496_3522">
<rect width="17" height="17" fill="white" transform="translate(0.5)"/>
</clipPath>
<clipPath id="clip1_496_3522">
<rect width="17" height="17" fill="white" transform="translate(0.5)"/>
</clipPath>
</defs>
</svg>
