<svg width="17" height="17" viewBox="0 0 17 17" fill="none" xmlns="http://www.w3.org/2000/svg">
<g clip-path="url(#clip0_496_3550)">
<path d="M15.8711 0.788269C15.4959 0.797566 15.0908 0.837078 14.7123 0.910125C14.181 1.01239 13.7029 1.18671 13.4539 1.37098C13.4307 1.44436 13.424 1.54497 13.4273 1.61303C13.4273 1.68276 13.4373 1.75846 13.4506 1.83483C13.8922 1.50579 14.4334 1.31719 14.9812 1.13889C14.5064 1.47325 14.098 1.82454 13.7129 2.18446C13.9818 2.303 14.3006 2.30466 14.5064 2.15889H14.5098C14.9547 1.83882 15.549 1.30358 15.8711 0.789265V0.788269ZM5.97988 0.907468C5.89023 0.907468 5.79394 0.917429 5.69433 0.939675C5.62792 1.26473 5.66777 1.56057 5.79062 1.79598C5.49179 1.67844 5.1332 1.69803 4.76796 2.00384C4.99043 2.76186 5.66113 3.09954 6.35175 2.75721C6.37168 3.07065 6.38164 3.38675 6.38164 3.70218C6.16582 3.46643 5.81054 3.25227 5.44199 3.26223C5.183 3.27219 4.91406 3.39007 4.67832 3.68889C5.05019 4.38616 5.77402 4.57874 6.37832 4.10725C6.37167 4.44925 6.35507 4.79124 6.32851 5.13655C6.12597 4.85764 5.76406 4.59202 5.3623 4.59534C5.183 4.59866 4.99707 4.6551 4.81113 4.78792C5.34238 4.93733 5.82714 5.14983 6.2621 5.43538C6.4248 5.53831 6.50781 5.69768 6.55429 5.85374C6.59746 6.00979 6.60742 6.17249 6.6041 6.3385C6.59082 6.67718 6.51113 7.03245 6.3916 7.3346L6.34843 7.43421L6.25214 7.48401C6.18574 7.52053 6.10937 7.55706 6.03632 7.59358C5.9666 8.01858 5.89023 8.4469 5.80722 8.87854C5.31581 8.28089 4.82109 8.06175 4.333 8.05842C3.0849 8.04514 1.86402 9.42639 0.724487 9.44964C2.26744 9.55921 4.66835 7.98538 5.50507 9.83479C6.12597 10.2963 6.76347 10.6715 7.41425 10.9571C7.46738 10.6449 7.55371 10.3162 7.67324 10.0241C7.7496 9.83811 7.83593 9.66546 7.9455 9.51936C8.05507 9.37327 8.18789 9.24046 8.39042 9.19065C8.44687 9.17405 8.50664 9.16077 8.56308 9.14749C8.38378 8.79885 8.40703 8.33069 8.61953 7.93889C8.83535 7.53714 9.22714 7.25823 9.6289 7.22835C10.0406 6.60081 10.4723 5.98987 10.9271 5.38889C11.2791 6.13596 12.056 6.2721 12.6969 5.75081C12.5342 5.14983 12.0992 4.96057 11.6842 4.97053C11.4982 4.97386 11.3156 5.02034 11.1596 5.08675C11.8137 4.24007 12.5143 3.42659 13.2646 2.63768C12.9924 2.51749 12.9725 2.42684 12.9027 2.15259C12.1391 2.94913 11.4252 3.77854 10.7578 4.63186C10.7412 5.15979 10.4424 5.6346 9.93769 5.73421H9.93105C9.60898 6.18577 9.29687 6.64065 8.99804 7.1055C9.07441 6.61077 9.15078 6.10276 9.24374 5.59807C9.01132 5.45198 8.82539 5.20628 8.72246 4.92073C8.40703 5.93343 8.18124 7.00921 7.88906 7.93889C7.84921 7.93225 7.80605 7.92893 7.76621 7.92893C7.2416 7.92561 6.78007 8.3805 6.66054 8.72249C7.0623 9.0678 7.5039 9.13421 7.86582 8.97483C7.72968 9.21721 7.59023 9.46292 7.45742 9.70862C7.33789 9.6555 7.21503 9.62893 7.09882 9.62893C6.72031 9.62561 6.375 9.86468 6.16582 10.1237C6.39492 9.0346 6.60078 7.94553 6.75019 6.85979C7.36113 7.16858 7.99531 6.89632 8.27753 6.20901C8.03847 5.95999 7.78613 5.86038 7.54707 5.85706C7.28476 5.85374 7.03574 5.96995 6.83984 6.126C6.883 5.75081 6.91621 5.37561 6.93945 5.00042C7.56367 5.61468 8.3705 5.44866 8.76894 4.69827C8.5332 4.39944 8.26425 4.28323 8.00527 4.27327C7.55371 4.25999 7.12871 4.58206 6.94609 4.87425C6.96601 4.51897 6.97929 4.16702 6.97929 3.81507C7.65996 4.13382 8.31406 3.79514 8.5332 3.04475C8.29414 2.84454 8.05839 2.76718 7.84257 2.7705C7.48398 2.77581 7.17187 3.00126 6.97265 3.25891C6.96601 3.02483 6.95273 2.79075 6.93613 2.55733C7.71308 2.81333 8.34062 2.34948 8.41367 1.53434C7.75624 1.17143 7.25156 1.50977 6.98925 1.92747C6.92949 1.45964 6.62402 0.908132 5.97988 0.907468ZM11.89 1.36966C10.6682 1.5629 9.90781 2.30864 9.37656 3.29544L9.45624 3.27552C9.63222 3.24231 9.80156 3.25891 9.95429 3.31536C10.3594 2.52479 10.957 1.84147 11.89 1.36966ZM16.2762 3.48636C14.7023 5.74085 12.5973 6.70042 10.5287 7.743C10.7047 8.09163 10.6814 8.54983 10.4723 8.93831V8.94163C12.657 7.58694 14.8816 6.30198 16.2762 3.48636ZM13.2978 3.63245C12.7732 3.62581 12.3117 4.08733 12.1922 4.426C12.8861 5.02366 13.6963 4.78792 14.0283 3.9844C13.7893 3.73538 13.5369 3.63577 13.2978 3.63245ZM9.6123 3.85823C9.59902 3.86155 9.58574 3.86155 9.57246 3.86487C9.36328 3.90471 9.17402 4.20022 9.25039 4.59202C9.32675 4.98382 9.61562 5.18968 9.82148 5.14651C10.0307 5.10667 10.2199 4.81116 10.1435 4.41936C10.0705 4.05081 9.81816 3.84827 9.6123 3.85823ZM2.8216 5.12659C2.77212 5.12659 2.71933 5.12991 2.66919 5.12991C2.98097 5.96995 3.31632 6.68714 4.02421 7.11878H4.02753C4.49902 7.4176 5.06347 7.3346 5.55156 7.14866L4.14375 5.98323L5.90019 6.91292C5.95 6.61741 6.12265 6.22229 5.94335 5.94007H5.94003V5.93675C5.12656 5.40882 4.1039 5.13655 2.8216 5.12659ZM9.69199 7.826C9.50937 7.83264 9.28691 7.95882 9.14414 8.22112C8.95488 8.57307 9.04785 8.91507 9.23378 9.01468C9.51933 9.13753 9.83808 8.84866 9.94433 8.65608C10.1336 8.30413 10.0406 7.96546 9.85468 7.86253C9.8082 7.83596 9.75175 7.826 9.69199 7.826ZM9.58906 9.62893C9.53925 9.62893 9.48613 9.62893 9.43632 9.63225C9.13085 9.64554 8.83203 9.69202 8.53984 9.76839H8.53652C8.53984 9.76839 8.48671 9.79163 8.42363 9.87796C8.36054 9.96428 8.2875 10.0938 8.22773 10.2498C8.13808 10.4657 8.06835 10.7246 8.02187 10.967L10.1469 10.6317L8.42363 11.3157C8.60292 11.5813 8.65273 11.6908 8.69589 11.8867C8.97148 12.0627 9.26367 12.1424 9.63222 12.0528C10.5486 11.8369 11.2691 11.0899 12.0228 10.21C11.1596 9.81487 10.356 9.62229 9.58906 9.62893ZM5.03359 10.2233L4.73476 10.9836C5.8205 11.4617 6.74687 12.0162 7.63339 12.5741L8.04843 11.8237C6.98925 11.4983 5.98984 10.9504 5.03359 10.2233ZM4.61523 11.5846C3.92128 12.491 3.08755 13.278 2.13462 13.7395L2.39626 14.2774C3.50292 13.7395 4.41933 12.8463 5.16972 11.8469C4.99043 11.7573 4.80449 11.6676 4.61523 11.5846ZM5.28925 11.9067C4.50566 13.3045 3.75195 14.3006 2.95341 15.7616L3.47968 16.0471C4.25664 14.6227 5.00703 13.6233 5.8205 12.1856C5.64785 12.0926 5.46855 11.9996 5.28925 11.9067ZM6.15917 12.3782C5.34238 13.6299 4.758 14.6526 4.18027 15.9741L4.7248 16.2131C5.29257 14.9182 5.86035 13.9287 6.6705 12.6803C6.50117 12.5774 6.33183 12.4744 6.15917 12.3782ZM6.92285 12.833C6.41152 13.6963 6.35507 14.7256 6.26542 15.5092L6.85644 15.5789C6.95273 14.7754 7.02578 13.8457 7.43085 13.1518L6.92285 12.833Z" fill="black"/>
</g>
<defs>
<clipPath id="clip0_496_3550">
<rect width="17" height="17" fill="white"/>
</clipPath>
</defs>
</svg>
