<svg width="17" height="17" viewBox="0 0 17 17" fill="none" xmlns="http://www.w3.org/2000/svg">
<path d="M14.6398 2.25531H2.36018C1.05676 2.25531 0 3.31207 0 4.61549V12.3845C0 13.6879 1.05676 14.7447 2.36018 14.7447H14.6398C15.9432 14.7447 17 13.6879 17 12.3845V4.61549C17 3.31207 15.9432 2.25531 14.6398 2.25531ZM5.91567 10.6821L2.61063 13.5017C2.37751 13.7007 2.02705 13.673 1.82813 13.4397C1.62918 13.2065 1.65684 12.8561 1.89022 12.6572L5.19526 9.83754C5.42835 9.63859 5.77877 9.66625 5.97772 9.89963C6.17668 10.1327 6.14902 10.4832 5.91567 10.6821ZM8.5 9.61017C8.05793 9.60907 7.62941 9.46218 7.29439 9.17245L7.29466 9.17272L7.2936 9.17192C7.29386 9.17219 7.29416 9.17219 7.29439 9.17245L2.22335 4.77108C1.99159 4.56993 1.96692 4.21951 2.16777 3.98805C2.36888 3.75629 2.71934 3.73162 2.95076 3.93247L8.02324 8.33494C8.13165 8.43142 8.31028 8.50108 8.5 8.49999C8.68946 8.50055 8.86507 8.43279 8.97945 8.33304L8.98191 8.33088L14.0492 3.9325C14.2807 3.73165 14.6311 3.75632 14.8322 3.98808C15.033 4.21951 15.0084 4.56997 14.7767 4.77111L9.70421 9.17381C9.37029 9.46052 8.94233 9.6096 8.5 9.61017ZM15.1721 13.4397C14.9731 13.673 14.6227 13.7007 14.3896 13.5017L11.0846 10.6821C10.8512 10.4831 10.8236 10.1327 11.0225 9.89963C11.2215 9.66625 11.5719 9.63862 11.805 9.83754L15.11 12.6572C15.3434 12.8561 15.3711 13.2065 15.1721 13.4397Z" fill="black"/>
</svg>
