<svg width="16" height="17" viewBox="0 0 16 17" fill="none" xmlns="http://www.w3.org/2000/svg">
<g clip-path="url(#clip0_939_3199)">
<path d="M15.4058 8.89219H13.2217V6.79311H15.4058C15.734 6.79311 16 6.52734 16 6.1991C16 5.87082 15.734 5.6049 15.4058 5.6049H13.2217V2.69231C13.2217 2.26714 13.1377 1.95508 12.9721 1.76499C12.8147 1.58415 12.6077 1.5 12.3211 1.5C12.0476 1.5 11.8485 1.58357 11.6941 1.76328C11.5304 1.95357 11.4473 2.26621 11.4473 2.6925V5.60525H7.33893L5.59208 2.96187C5.44258 2.72597 5.30201 2.50499 5.1655 2.29287C5.04259 2.10184 4.92272 1.94631 4.80949 1.83018C4.70925 1.72736 4.59502 1.64779 4.46142 1.58663C4.33536 1.52908 4.17509 1.50019 3.98548 1.50019C3.74364 1.50019 3.52411 1.56645 3.31389 1.70257C3.10588 1.83721 2.96208 2.00367 2.87426 2.2115C2.79717 2.409 2.75638 2.71165 2.75638 3.10231V5.60506H0.593977C0.26586 5.60509 0 5.87101 0 6.19926C0 6.52751 0.26586 6.79327 0.594009 6.79327H2.75642V8.89258H0.594009C0.26586 8.89258 0 9.15844 0 9.48678C0 9.81493 0.26586 10.0806 0.594009 10.0806H2.75642V13.406C2.75642 13.8186 2.84311 14.1275 3.01483 14.3238C3.17813 14.511 3.38518 14.5979 3.66635 14.5979C3.93763 14.5979 4.14307 14.5106 4.31343 14.3231C4.48789 14.131 4.57613 13.8223 4.57613 13.4061V10.0806H8.29378L10.3056 13.1655C10.4455 13.3694 10.5899 13.5753 10.734 13.7771C10.8639 13.9583 11.0057 14.118 11.1553 14.2514C11.2901 14.372 11.4345 14.4604 11.5847 14.5144C11.7392 14.57 11.9199 14.5982 12.1203 14.5982C12.6644 14.5982 13.2216 14.4317 13.2216 13.1964V10.0806H15.4057C15.7339 10.0806 15.9999 9.81454 15.9999 9.48639C16 9.15824 15.734 8.89219 15.4058 8.89219ZM11.4473 6.79308V8.89216H9.51152L8.12448 6.79308H11.4473ZM4.57616 4.38116L5.37445 5.6049H4.57616V4.38116ZM4.57616 8.89219V6.79311H6.14959L7.51874 8.89219H4.57616ZM11.4473 11.822L10.2969 10.0806H11.4473V11.822Z" fill="black"/>
</g>
<defs>
<clipPath id="clip0_939_3199">
<rect width="16" height="16" fill="white" transform="translate(0 0.5)"/>
</clipPath>
</defs>
</svg>
