<svg width="13" height="13" viewBox="0 0 13 13" fill="none" xmlns="http://www.w3.org/2000/svg">
<path d="M9.01897 8.30462L8.69633 8.64427C8.69633 8.64427 7.92949 9.45162 5.83636 7.24793C3.74325 5.04426 4.51008 4.23692 4.51008 4.23692L4.71324 4.02304C5.21374 3.49613 5.26091 2.65019 4.82425 2.03261L3.93106 0.769307C3.39061 0.00493769 2.3463 -0.0960352 1.72686 0.55612L0.615059 1.72664C0.307912 2.05001 0.102084 2.46919 0.127046 2.93421C0.190902 4.12387 0.699252 6.68346 3.53588 9.66993C6.54399 12.8369 9.36648 12.9628 10.5207 12.8489C10.8858 12.8128 11.2033 12.616 11.4591 12.3466L12.4654 11.2872C13.1446 10.5721 12.9531 9.34622 12.084 8.846L10.7307 8.06704C10.1601 7.73859 9.46494 7.83506 9.01897 8.30462Z" fill="#1C274C"/>
</svg>
