<svg width="60" height="60" viewBox="0 0 60 60" fill="none" xmlns="http://www.w3.org/2000/svg">
<path d="M56.8875 27.6L48.75 18.45C48.3079 17.9522 47.765 17.5543 47.1572 17.2827C46.5494 17.0112 45.8907 16.8722 45.225 16.875H37.725V10.3125C37.725 9.07577 37.2363 7.88913 36.3653 7.01112C35.4943 6.13312 34.3117 5.63489 33.075 5.625H6.59998C5.35677 5.625 4.16449 6.11886 3.28541 6.99794C2.40634 7.87701 1.91248 9.0693 1.91248 10.3125V42.1875C1.91248 43.4307 2.40634 44.623 3.28541 45.5021C4.16449 46.3811 5.35677 46.875 6.59998 46.875H7.83748C7.90602 48.9274 8.78507 50.8691 10.2821 52.2748C11.7792 53.6805 13.7723 54.4357 15.825 54.375C17.8813 54.4358 19.8785 53.6818 21.3815 52.2771C22.8845 50.8724 23.7718 48.9308 23.85 46.875H37.5C37.5685 48.9274 38.4476 50.8691 39.9446 52.2748C41.4417 53.6805 43.4348 54.4357 45.4875 54.375C47.5438 54.4358 49.541 53.6818 51.044 52.2771C52.547 50.8724 53.4342 48.9308 53.5125 46.875C54.7198 46.8175 55.8591 46.2995 56.6961 45.4276C57.5332 44.5557 58.0043 43.3961 58.0125 42.1875V30.7125C58.039 29.571 57.6377 28.4608 56.8875 27.6ZM15.825 49.6875C15.0149 49.7497 14.2132 49.4888 13.5949 48.9619C12.9766 48.4349 12.5919 47.6846 12.525 46.875C12.5919 46.0654 12.9766 45.3151 13.5949 44.7881C14.2132 44.2612 15.0149 44.0003 15.825 44.0625C16.639 43.9999 17.445 44.2597 18.0693 44.7857C18.6936 45.3118 19.0862 46.0622 19.1625 46.875C19.0862 47.6878 18.6936 48.4382 18.0693 48.9643C17.445 49.4903 16.639 49.7501 15.825 49.6875ZM33.075 21.2625V42.1875H22.0875C21.3116 41.2907 20.3491 40.5743 19.2673 40.0885C18.1856 39.6027 17.0107 39.3592 15.825 39.375C14.6455 39.3647 13.4779 39.6108 12.4031 40.0965C11.3282 40.5821 10.3718 41.2956 9.59998 42.1875H6.59998V10.3125H33.075V21.2625ZM37.7625 21.5625H45.2625L50.6625 27.675H37.7625V21.5625ZM45.5625 49.6875C44.7524 49.7497 43.9507 49.4888 43.3324 48.9619C42.7141 48.4349 42.3294 47.6846 42.2625 46.875C42.3294 46.0654 42.7141 45.3151 43.3324 44.7881C43.9507 44.2612 44.7524 44.0003 45.5625 44.0625C46.3765 43.9999 47.1825 44.2597 47.8068 44.7857C48.4311 45.3118 48.8237 46.0622 48.9 46.875C48.8237 47.6878 48.4311 48.4382 47.8068 48.9643C47.1825 49.4903 46.3765 49.7501 45.5625 49.6875ZM45.5625 39.375C44.383 39.3647 43.2154 39.6108 42.1406 40.0965C41.0657 40.5821 40.1093 41.2956 39.3375 42.1875H37.7625V32.325H53.4V42.1875H51.825C51.0491 41.2907 50.0866 40.5743 49.0048 40.0885C47.9231 39.6027 46.7482 39.3592 45.5625 39.375Z" fill="#EE43BD"/>
</svg>
