<svg width="49" height="45" viewBox="0 0 49 45" fill="none" xmlns="http://www.w3.org/2000/svg">
<rect width="49" height="45" rx="5" fill="#009A49"/>
<path d="M35.2241 30.6932L31.1436 26.6127C32.126 25.3049 32.6563 23.713 32.6546 22.0773C32.6546 17.8992 29.2554 14.5 25.0773 14.5C20.8992 14.5 17.5 17.8992 17.5 22.0773C17.5 26.2554 20.8992 29.6546 25.0773 29.6546C26.713 29.6563 28.3049 29.126 29.6127 28.1436L33.6932 32.2241C33.8998 32.4088 34.1692 32.5073 34.4461 32.4996C34.7231 32.4918 34.9865 32.3783 35.1824 32.1824C35.3783 31.9865 35.4918 31.7231 35.4996 31.4461C35.5073 31.1692 35.4088 30.8998 35.2241 30.6932ZM19.6649 22.0773C19.6649 21.0068 19.9824 19.9604 20.5771 19.0703C21.1718 18.1803 22.0171 17.4866 23.0061 17.0769C23.995 16.6673 25.0833 16.5601 26.1332 16.7689C27.1831 16.9778 28.1475 17.4932 28.9044 18.2502C29.6613 19.0071 30.1768 19.9715 30.3856 21.0214C30.5945 22.0713 30.4873 23.1595 30.0776 24.1485C29.668 25.1375 28.9743 25.9828 28.0842 26.5775C27.1942 27.1722 26.1477 27.4896 25.0773 27.4896C23.6424 27.4879 22.2667 26.9171 21.2521 25.9025C20.2374 24.8878 19.6667 23.5122 19.6649 22.0773Z" fill="white"/>
</svg>
